<svg xmlns="http://www.w3.org/2000/svg" width="25.999" height="28.001" viewBox="0 0 25.999 28.001">
  <path id="Unión_4" data-name="Unión 4" d="M-593-1a6,6,0,0,1,6-6,6,6,0,0,1,6,6,6,6,0,0,1-6,6A6,6,0,0,1-593-1Zm2.6,0A3.4,3.4,0,0,0-587,2.4,3.4,3.4,0,0,0-583.6-1,3.4,3.4,0,0,0-587-4.4,3.4,3.4,0,0,0-590.4-1ZM-607-14a9,9,0,0,1,9-9,9,9,0,0,1,9,9,9,9,0,0,1-9,9A9,9,0,0,1-607-14Zm2.6,0A6.408,6.408,0,0,0-598-7.6a6.407,6.407,0,0,0,6.4-6.4,6.407,6.407,0,0,0-6.4-6.4A6.407,6.407,0,0,0-604.4-14Zm2.233,1.185a1,1,0,0,1-.921-1.074,6.17,6.17,0,0,1,2-3.962,5.394,5.394,0,0,1,4.234-1.051,1,1,0,0,1,.872,1.113,1,1,0,0,1-1.114.872,3.484,3.484,0,0,0-2.724.613,4.165,4.165,0,0,0-1.278,2.568,1,1,0,0,1-1,.923Z" transform="translate(607 23)" fill="#891a28"/>
</svg>
