<svg width="20" height="21" viewBox="0 0 20 21" fill="#85002A" xmlns="http://www.w3.org/2000/svg">
<path d="M9.47865 1.52937C9.47865 0.921733 8.98576 0.429688 8.37897 0.429688C7.77134 0.429688 7.2793 0.921733 7.2793 1.52937C7.2793 2.137 7.77134 2.62904 8.37897 2.62904C8.98576 2.62904 9.47865 2.137 9.47865 1.52937Z" fill="#85002A"/>
<path d="M9.94919 4.62303C9.94919 4.26442 9.65856 3.97461 9.30077 3.97461C8.943 3.97461 8.65234 4.26439 8.65234 4.62303C8.65234 4.9808 8.94298 5.27061 9.30077 5.27061C9.65854 5.27061 9.94919 4.98083 9.94919 4.62303Z" fill="#85002A"/>
<path d="M14.3092 2.88671C14.3101 2.44394 14.1342 2.01903 13.8214 1.7063C13.5087 1.39271 13.0838 1.2168 12.6419 1.2168C12.1991 1.2168 11.7742 1.39271 11.4614 1.7063C11.1487 2.01903 10.9728 2.44394 10.9736 2.88671C10.9728 3.32861 11.1487 3.75354 11.4614 4.06712C11.7742 4.37986 12.1991 4.55577 12.6419 4.55577C13.0838 4.55577 13.5087 4.37986 13.8214 4.06712C14.1342 3.75354 14.3101 3.32863 14.3092 2.88671Z" fill="#85002A"/>
<path d="M15.2067 9.04825C13.807 9.07969 12.41 8.91398 11.0562 8.55536C10.7655 8.47802 10.4885 8.3582 10.2336 8.20013C9.39989 7.68089 8.54581 7.19563 7.67293 6.74353C7.52591 6.66705 7.36613 6.61521 7.20212 6.59056C5.94778 6.4019 4.66629 6.6254 3.54958 7.22793C2.43375 7.83045 1.54397 8.77971 1.01375 9.93215C0.746894 10.5134 0.814889 11.1941 1.19136 11.7108C1.74204 12.4655 2.62501 12.9065 3.55902 12.8938C4.78871 13.0153 6.02349 13.0757 7.25921 13.0757C7.56004 13.0757 7.85833 13.1199 8.14557 13.2082C9.48489 13.6179 10.7597 14.2144 11.9315 14.9801C12.8408 15.6778 13.9847 15.9974 15.1243 15.8724C16.2639 15.7475 17.311 15.1875 18.0478 14.3088C18.7838 13.43 19.1526 12.3015 19.077 11.1577C19.0498 10.7549 18.8637 10.3793 18.5586 10.1141C17.6348 9.31356 16.423 8.92774 15.2069 9.04842L15.2067 9.04825Z" fill="#85002A"/>
<path d="M11.9317 19.4525C10.7598 18.6868 9.48505 18.0903 8.14577 17.6806C7.85853 17.5923 7.56024 17.5472 7.25941 17.5472C6.02376 17.5481 4.78906 17.4869 3.55922 17.3662C2.47399 17.3807 1.47204 16.7849 0.967265 15.8238C0.89163 15.6793 0.852539 15.5179 0.852539 15.3547V12.0957C1.49755 12.9209 2.48845 13.401 3.53631 13.3959C4.77365 13.5175 6.016 13.5778 7.25933 13.577C7.51002 13.577 7.75904 13.6144 7.99868 13.6874C9.28617 14.0818 10.5125 14.6545 11.6401 15.3896C12.8197 16.2871 14.3382 16.6091 15.7796 16.2684C17.2209 15.9267 18.4344 14.9579 19.0862 13.6279V15.9251C19.0862 17.0375 18.6689 18.1091 17.9177 18.9293C17.1656 19.7494 16.1347 20.2576 15.0266 20.3544C13.9184 20.4513 12.8145 20.1301 11.9314 19.4528L11.9317 19.4525Z" fill="#85002A"/>
</svg>
