<svg width="30" height="39" viewBox="0 0 30 39" fill="#85002A" xmlns="http://www.w3.org/2000/svg">
<path d="M9.28435 38.0435L14.3692 22.9566H1.62793L20.9326 1.73828L15.8478 16.8252H28.589L9.28435 38.0435Z" fill="#85002A"/>
<path d="M10.1169 38.2951C10.2862 37.7942 10.4537 37.2968 10.6212 36.7959C11.0271 35.5956 11.4295 34.3986 11.8337 33.1999C12.326 31.7405 12.8182 30.2844 13.3104 28.8267C13.7336 27.5693 14.1568 26.3189 14.5799 25.0615C14.7872 24.4535 15.0152 23.849 15.1982 23.2307C15.2017 23.222 15.2017 23.2134 15.2069 23.2048C15.3882 22.6659 14.9098 22.1132 14.3744 22.1132H10.0599H3.19449H1.63137C1.83518 22.6054 2.03726 23.0977 2.23934 23.5847C2.88184 22.88 3.52089 22.1719 4.16516 21.4689C5.70754 19.7763 7.2482 18.0802 8.79058 16.3876C10.6421 14.3495 12.5006 12.3114 14.3521 10.277C15.9618 8.50662 17.5681 6.73971 19.1795 4.97107C19.9568 4.12129 20.7686 3.28707 21.5112 2.4062C21.5199 2.39238 21.532 2.38029 21.5458 2.37166C21.0656 2.09185 20.582 1.81034 20.1036 1.52881C19.9343 2.02969 19.7668 2.52712 19.5993 3.028C19.1934 4.22837 18.7909 5.42534 18.3868 6.62399C17.8945 8.08346 17.4023 9.53949 16.91 10.9972C16.4869 12.2546 16.0637 13.5051 15.6406 14.7624C15.4333 15.3704 15.2053 15.9749 15.0222 16.5933C15.0188 16.6019 15.0188 16.6105 15.0136 16.6192C14.8323 17.1581 15.3107 17.7108 15.8461 17.7108H20.1606H27.026H28.5891C28.3853 17.2185 28.1832 16.7262 27.9812 16.2392C27.3387 16.9439 26.6996 17.652 26.0553 18.355C24.513 20.0477 22.9723 21.7438 21.4299 23.4363C19.5784 25.4744 17.7199 27.5125 15.8684 29.547C14.2587 31.3173 12.6524 33.0842 11.0409 34.8529C10.2637 35.7078 9.47438 36.5489 8.70927 37.4177C8.69545 37.4316 8.68854 37.4436 8.67472 37.4523C8.37247 37.7839 8.32065 38.3469 8.67472 38.6751C9.00634 38.9774 9.57283 39.0344 9.89756 38.6751C10.5401 37.9704 11.1791 37.2623 11.8234 36.5593C13.3658 34.8667 14.9064 33.1705 16.4488 31.478C18.3003 29.4399 20.1588 27.4018 22.0103 25.3674C23.62 23.597 25.2263 21.8301 26.8378 20.0615C27.615 19.2065 28.4095 18.3654 29.1694 17.4966C29.1781 17.4828 29.1902 17.4707 29.204 17.462C29.6962 16.918 29.3681 15.9905 28.596 15.9905H24.2815H17.4161H15.853C16.1294 16.3532 16.4092 16.7194 16.6855 17.0821C16.8548 16.5812 17.0223 16.0838 17.1898 15.5829C17.5957 14.3825 17.9981 13.1856 18.4023 11.9869C18.8946 10.5274 19.3868 9.07142 19.879 7.61371C20.3022 6.3563 20.7254 5.10583 21.1485 3.84846C21.3523 3.2405 21.5976 2.63598 21.7668 2.01766C21.7703 2.00902 21.7703 2.00039 21.7755 1.99175C22.0518 1.17999 20.9032 0.523653 20.3333 1.14891C19.6908 1.85362 19.0517 2.56174 18.4075 3.26473C16.8651 4.95736 15.3244 6.65348 13.782 8.34602C11.9305 10.3841 10.0721 12.4222 8.22056 14.4567C6.61084 16.227 5.00456 17.9939 3.39307 19.7626C2.61585 20.6175 1.82133 21.4586 1.06139 22.3274C1.05276 22.3412 1.04067 22.3533 1.02685 22.362C0.534593 22.9061 0.862768 23.8335 1.63482 23.8335H5.94931H12.8147H14.3778C14.1015 23.4708 13.8217 23.1047 13.5453 22.7419C13.3761 23.2428 13.2085 23.7402 13.041 24.2411C12.6351 25.4415 12.2327 26.6384 11.8285 27.8371C11.3363 29.2966 10.844 30.7526 10.3518 32.2103C9.92864 33.4677 9.50547 34.7182 9.08232 35.9756C8.87506 36.5835 8.64707 37.188 8.464 37.8064C8.46055 37.815 8.46055 37.8236 8.45537 37.8323C8.31374 38.2606 8.61945 38.796 9.05989 38.8945C9.52968 39.0085 9.96149 38.7528 10.1169 38.2951Z" fill="#85002A"/>
</svg>
