<svg width="17" height="21" viewBox="0 0 17 21" fill="#85002A" xmlns="http://www.w3.org/2000/svg">
<path fill-rule="evenodd" clip-rule="evenodd" d="M14.89 2.27253C14.4599 3.07054 13.9765 3.96753 12.8868 4.64356C11.8036 5.30871 10.4524 5.36457 9.31719 4.79039C9.31719 4.79039 9.03868 3.09147 10.6773 1.70108C11.8751 0.685102 13.2928 0.559228 15.8596 0.888949C15.4469 1.23909 15.1806 1.73321 14.89 2.27253ZM7.3685 1.67617C8.3973 3.35898 8.94215 5.29267 8.9454 7.26537C12.7197 5.12932 16.6505 7.55698 16.4662 11.5682C16.2485 16.2956 12.1243 22.4526 8.42006 19.8602C4.71578 22.4526 0.591571 16.2956 0.37395 11.5682C0.188736 7.54964 4.13665 5.11967 7.9166 7.27838C7.91173 5.50305 7.42533 3.76338 6.51021 2.24305L7.3685 1.67617Z" fill="#85002A"/>
</svg>
