<svg xmlns="http://www.w3.org/2000/svg" width="25.791" height="25.791" viewBox="0 0 25.791 25.791">
  <path id="reshot-icon-happy-smile-8EPDURXM6K" d="M13.9,1a12.9,12.9,0,1,0,12.9,12.9A12.9,12.9,0,0,0,13.9,1Zm0,23.447A10.551,10.551,0,1,1,24.447,13.9,10.551,10.551,0,0,1,13.9,24.447ZM9.206,12.723V10.379a1.172,1.172,0,0,1,2.345,0v2.345a1.172,1.172,0,0,1-2.345,0Zm9.379-2.345v2.345a1.172,1.172,0,1,1-2.345,0V10.379a1.172,1.172,0,0,1,2.345,0ZM9.206,16.24h9.379a4.689,4.689,0,0,1-9.379,0Z" transform="translate(-1 -1)" fill="#891a28"/>
</svg>
