<svg xmlns="http://www.w3.org/2000/svg" width="32" height="22" viewBox="0 0 32 22">
  <g id="_59-Chorizo" data-name="59-Chorizo" transform="translate(0 -5)">
    <path id="Trazado_2130" data-name="Trazado 2130" d="M32,12H30v1c0,.56-.51,1.06-1.08,1.43C28.45,9,25.58,5,22,5H7C3.08,5,0,9.83,0,16S3.08,27,7,27H22c3.59,0,6.47-4.06,6.93-9.48.56.37,1.07.86,1.07,1.42V20h2V18.95A3.15,3.15,0,0,0,31.31,17H32V15h-.73A3.17,3.17,0,0,0,32,13ZM7,25c-2.71,0-5-4.12-5-9S4.29,7,7,7s5,4.12,5,9S9.71,25,7,25Zm15,0H11.06A13.58,13.58,0,0,0,14,16a13.58,13.58,0,0,0-2.94-9H22c2.71,0,5,4.12,5,9S24.71,25,22,25Z" fill="#891a28"/>
    <path id="Trazado_2131" data-name="Trazado 2131" d="M7,11c-1.71,0-3,2.15-3,5s1.29,5,3,5,3-2.15,3-5S8.71,11,7,11Z" fill="#891a28"/>
  </g>
</svg>
