<svg width="43" height="43" viewBox="0 0 43 43" fill="#ECECDA" xmlns="http://www.w3.org/2000/svg">
<path d="M7.8125 27.6873C7.8125 27.8691 7.9546 28.0112 8.13636 28.0112C15.4247 28.0112 21.3517 33.9399 21.3517 41.243C21.3517 41.4099 21.4938 41.5669 21.6756 41.5669C21.8573 41.5669 21.9994 41.4099 21.9994 41.243C21.9994 33.9395 27.9282 28.0112 35.2148 28.0112C35.3966 28.0112 35.5387 27.8691 35.5387 27.6873C35.5387 27.5055 35.3966 27.3634 35.2148 27.3634C27.9265 27.3634 21.9994 21.4347 21.9994 14.1481C21.9994 13.9663 21.8573 13.8242 21.6756 13.8242C21.4938 13.8242 21.3517 13.9663 21.3517 14.1481C21.3517 21.4364 15.423 27.3634 8.13636 27.3634C7.9546 27.3585 7.8125 27.5055 7.8125 27.6873Z" fill="#ECECDA"/>
<path d="M5.50062 15.5806C8.26995 15.5806 10.5237 17.8196 10.5237 20.589C10.5237 20.7707 10.6658 20.9128 10.8476 20.9128C11.0294 20.9128 11.1715 20.7707 11.1715 20.589C11.1715 17.8196 13.4252 15.5806 16.1798 15.5806C16.3615 15.5806 16.5036 15.4237 16.5036 15.2568C16.5036 15.075 16.3615 14.9329 16.1798 14.9329C13.4204 14.9329 11.1715 12.6791 11.1715 9.90979C11.1715 9.72804 11.0294 9.58594 10.8476 9.58594C10.6658 9.58594 10.5237 9.72804 10.5237 9.90979C10.5237 12.6791 8.26995 14.9329 5.50062 14.9329C5.33373 14.9329 5.17676 15.075 5.17676 15.2568C5.17676 15.4237 5.32878 15.5806 5.50062 15.5806Z" fill="#ECECDA"/>
<path d="M24.651 10.4272C29.0942 10.4272 32.7176 14.0508 32.7176 18.4939C32.7176 18.6756 32.8597 18.8177 33.0415 18.8177C33.2232 18.8177 33.3653 18.6756 33.3653 18.4939C33.3653 14.0507 36.9889 10.4272 41.4421 10.4272C41.609 10.4272 41.7659 10.2851 41.7659 10.1034C41.7659 9.92162 41.609 9.77953 41.4421 9.77953C36.9892 9.77953 33.3653 6.15594 33.3653 1.70276C33.3653 1.53588 33.2232 1.37891 33.0415 1.37891C32.8597 1.37891 32.7176 1.53588 32.7176 1.70276C32.7176 6.15568 29.094 9.77953 24.651 9.77953C24.4692 9.77953 24.3271 9.92163 24.3271 10.1034C24.3288 10.2868 24.4693 10.4272 24.651 10.4272Z" fill="#ECECDA"/>
</svg>
