<svg id="Grupo_2" data-name="Grupo 2" xmlns="http://www.w3.org/2000/svg" xmlns:xlink="http://www.w3.org/1999/xlink" width="43.929" height="43.929" viewBox="0 0 43.929 43.929">
  <defs>
    <clipPath id="clip-path">
      <rect id="Rectángulo_2" data-name="Rectángulo 2" width="43.929" height="43.929" fill="none"/>
    </clipPath>
  </defs>
  <g id="Grupo_1" data-name="Grupo 1" clip-path="url(#clip-path)">
    <path id="Trazado_1" data-name="Trazado 1" d="M43.929,21.965A21.965,21.965,0,1,1,21.965,0,21.965,21.965,0,0,1,43.929,21.965" fill="#ededdd"/>
    <path id="Trazado_2" data-name="Trazado 2" d="M102.746,62.9a16.326,16.326,0,0,0-6.7-5.042,14.092,14.092,0,0,0-3.511-.773.193.193,0,0,0-.18.293c.942,1.528,3.317,5.989,2.158,10.5a3.882,3.882,0,0,1-1.442,2.166,1.6,1.6,0,0,1-1.848.275c-1.15-.724-1.086-2.347-.06-3.74.021-.028.042-.058.063-.088l.02-.03.042-.063.024-.038.037-.059.026-.043.035-.059.026-.047.033-.06.027-.05.032-.061.027-.053.031-.062.027-.056.029-.063.027-.059.028-.064.027-.062.027-.064.027-.066.025-.063.027-.07.022-.06.028-.076.017-.05q.059-.169.112-.347l.007-.021c.01-.035.02-.071.03-.107l.011-.04c.01-.035.019-.07.028-.1l.012-.045c.009-.035.018-.07.026-.106l.011-.046c.008-.036.016-.072.025-.108l.01-.046c.008-.037.016-.073.023-.11l.009-.045q.011-.057.022-.114l.008-.042c.007-.04.014-.079.021-.119l.006-.038q.01-.063.02-.126l0-.032c.006-.045.013-.089.018-.134,0-.012,0-.025,0-.037,0-.032.01-.079.013-.111l0-.02a6.666,6.666,0,0,0-2.635-6.418.192.192,0,0,0-.3.2c.012.049.023.1.035.154s.024.119.035.182l0,.009c.011.062.021.127.031.194l0,.013c0,.03.008.061.012.092v.011c0,.034.008.069.011.1v.012q0,.046.008.093l0,.022q.008.106.011.216c0,.009,0,.017,0,.026q0,.047,0,.1c0,.006,0,.011,0,.017q0,.055,0,.111c0,.008,0,.017,0,.026,0,.03,0,.061,0,.091v.029c0,.038,0,.075-.008.113l0,.017q0,.049-.01.1l0,.033c0,.034-.009.068-.014.1l0,.015q-.009.057-.019.114l-.008.041c-.006.03-.012.059-.018.088l0,.022c-.009.038-.018.076-.028.114l-.005.02c-.009.031-.017.062-.027.092l-.012.04c-.012.038-.025.076-.038.114l0,.006c-.013.036-.027.072-.042.108l-.014.033c-.014.033-.029.066-.043.1l-.007.016c-.017.037-.036.074-.055.111l-.013.024c-.016.031-.033.061-.051.091l-.018.03c-.021.036-.044.072-.067.108L89,60.156q-.031.046-.064.092l-.022.031q-.035.046-.071.092l-.011.014c-.028.034-.058.068-.088.1l-.025.027c-.025.027-.05.053-.077.08l-.024.024q-.05.049-.1.1l-.022.019q-.045.039-.092.077l-.032.025c-.039.031-.079.061-.12.091h0v-.01l0-.01V60.9l0-.01v-.007l0-.014,0-.01,0-.02,0-.01,0-.018,0-.012,0-.03v-.011l0-.024,0-.016,0-.026s0-.01,0-.015l0-.039v-.018l0-.028v-.021l0-.039V60.5c0-.011,0-.022,0-.034v-.057c0-.008,0-.016,0-.023s0-.035,0-.052,0-.017,0-.026,0-.023,0-.035v-.028q0-.021,0-.042c0-.013,0-.025,0-.038s0-.027,0-.041,0-.021,0-.031,0-.025,0-.038l0-.031c0-.021,0-.041-.006-.062s0-.021,0-.031l0-.04q0-.017,0-.034l-.006-.045c0-.015,0-.03-.007-.045s-.005-.034-.008-.051l-.006-.036-.008-.042-.007-.036c0-.023-.009-.046-.014-.069l-.008-.034-.01-.045-.009-.038-.012-.047-.012-.043c-.006-.021-.012-.042-.018-.063l-.012-.037-.015-.046-.013-.038-.023-.064-.017-.044-.019-.049-.016-.039-.021-.048L88,58.866l-.035-.075-.018-.037-.024-.048-.02-.038-.033-.06-.027-.046-.032-.054-.023-.038-.032-.049-.023-.035-.052-.076-.025-.034-.037-.05-.028-.036-.045-.056-.034-.04-.052-.061L87.429,58l-.046-.049-.031-.033-.074-.073-.031-.029-.054-.05-.036-.032-.061-.053A5.319,5.319,0,0,0,84.59,56.6a.193.193,0,0,0-.192.3,3.975,3.975,0,0,1,.658,1.545c.006.033.011.067.016.1v0q.007.049.012.1v.008c0,.032.006.064.008.1v.012q0,.047,0,.094c0,.005,0,.011,0,.016,0,.03,0,.061,0,.091v.02q0,.044,0,.089c0,.008,0,.015,0,.023q0,.043-.005.087c0,.009,0,.018,0,.027,0,.028-.005.057-.008.085l0,.03c0,.028-.007.055-.012.083l-.005.033c0,.027-.01.054-.015.081l-.008.036q-.008.04-.018.08l-.01.039c-.007.026-.014.052-.021.078l-.012.041c-.008.025-.016.051-.024.076l-.015.044c-.009.025-.018.05-.027.075l-.018.047-.03.073-.022.049c-.011.024-.022.048-.033.072l-.025.051-.036.07-.029.053c-.013.023-.026.046-.039.069l-.033.055L84.6,60.6l-.038.056-.045.066-.042.058-.048.065-.047.059-.051.064-.052.061-.054.063-.057.062-.057.062-.062.063-.061.061-.068.064-.064.06-.074.065-.066.058-.081.067-.069.057-.089.069-.07.054-.1.073-.068.05-.117.08-.061.042q-.091.061-.188.121-.151.095-.294.2-.1.071-.186.146l-.09.076a4.516,4.516,0,0,0-.9,1.074q-.06.1-.115.2-.082.155-.153.317a4.439,4.439,0,0,0-.3,1.017q-.02.116-.036.239c-.018.141-.04.272-.064.395s-.051.236-.081.341q-.011.039-.022.077c-.015.051-.031.1-.047.145-.024.07-.049.135-.076.2-.017.041-.035.08-.053.117a1.845,1.845,0,0,1-.313.469,1.257,1.257,0,0,1-.143.13.706.706,0,0,0-.193.887c.551,1.044,2.01,2.819,5.38,2.089,0,0-7.168,5.633-1.683,12.132a8.133,8.133,0,0,0,2.959,2.225,14.15,14.15,0,0,0,4.79.831A15.291,15.291,0,0,0,102.4,80.468a.043.043,0,0,0-.038-.071,12.706,12.706,0,0,1-5.509-.5c-3.358-.929-3.989-4.212-2.224-5.488,1.4-1.011,3.385.269,4,.718a.08.08,0,0,0,.124-.087,4.821,4.821,0,0,1,.052-3.6,2.087,2.087,0,0,1,3.057-.647c2.312,1.692,1.637,6.842,1.437,8.079a.043.043,0,0,0,.08.026c1.648-3.177,2.127-5.023,2.127-7.621a14.24,14.24,0,0,0-2.761-8.367M85.168,64.923a2.247,2.247,0,0,1-2.387,1.971.633.633,0,0,1-.462-.9,1.788,1.788,0,0,1,.853-.841,3.355,3.355,0,0,1,1.8-.488.212.212,0,0,1,.193.26" transform="translate(-69.144 -49.088)" fill="#891a28"/>
    <path id="Trazado_3" data-name="Trazado 3" d="M61.585,163.655l-1.149-.372a.676.676,0,0,1-.437-.444l-.354-1.156a.249.249,0,0,0-.478,0L58.8,162.83a.676.676,0,0,1-.441.436l-1.157.357a.251.251,0,0,0,0,.479l1.149.372a.675.675,0,0,1,.435.444l.355,1.155a.249.249,0,0,0,.478.007l.371-1.152a.676.676,0,0,1,.443-.439l1.153-.354a.25.25,0,0,0,0-.479" transform="translate(-49.455 -140.07)" fill="#891a28"/>
  </g>
</svg>
