<svg width="43" height="43" viewBox="0 0 43 43" fill="#85002A" xmlns="http://www.w3.org/2000/svg">
<path d="M32.2361 30.0728L31.204 31.1038C28.6308 33.6743 25.2117 35.0899 21.5748 35.0899C17.938 35.0899 14.5192 33.6744 11.948 31.1011L32.2361 30.0728ZM32.2361 30.0728L31.7856 30.0748C31.9705 29.3397 31.7767 28.5289 31.2005 27.9545C30.3306 27.082 28.9211 27.0823 28.0514 27.9519L28.0514 27.952C26.3211 29.6826 24.0228 30.636 21.5743 30.636C19.1258 30.636 16.8278 29.6826 15.0971 27.9519L14.6729 28.3762L15.0971 27.9519C14.2273 27.0821 12.8178 27.0821 11.948 27.9519L12.3602 28.3641L11.948 27.952C11.0783 28.8217 11.0782 30.231 11.9478 31.1009L32.2361 30.0728ZM1.0248 21.4742C1.0248 10.1425 10.2431 0.924219 21.5748 0.924219C32.9065 0.924219 42.1248 10.1425 42.1248 21.4742C42.1248 32.8059 32.9065 42.0242 21.5748 42.0242C10.2431 42.0242 1.0248 32.8059 1.0248 21.4742ZM31.611 16.1054C31.611 14.5157 30.323 13.2277 28.7333 13.2277C27.1436 13.2277 25.8556 14.5157 25.8556 16.1054C25.8556 17.6951 27.1436 18.9831 28.7333 18.9831C30.323 18.9831 31.611 17.6951 31.611 16.1054ZM17.294 16.1054C17.294 14.5157 16.006 13.2277 14.4163 13.2277C12.8266 13.2277 11.5387 14.5157 11.5387 16.1054C11.5387 17.6951 12.8266 18.9831 14.4163 18.9831C16.006 18.9831 17.294 17.6951 17.294 16.1054Z" fill="#85002A" stroke="#85002A" stroke-width="1.2"/>
</svg>
