<svg xmlns="http://www.w3.org/2000/svg" width="31.09" height="31.09" viewBox="0 0 31.09 31.09">
  <g id="Grupo_663" data-name="Grupo 663" transform="translate(-322.455 -25.404)">
    <g id="Grupo_661" data-name="Grupo 661" transform="translate(24.455 -13.596)">
      <path id="Trazado_18" data-name="Trazado 18" d="M31.09,15.545A15.545,15.545,0,1,1,15.545,0,15.545,15.545,0,0,1,31.09,15.545" transform="translate(298 39)" fill="#ededdd"/>
      <path id="Unión_2" data-name="Unión 2" d="M0,14.572a2.99,2.99,0,0,1,4.632-2.5V2.992a.675.675,0,0,1,.526-.659L15.387.017a.675.675,0,0,1,.824.659V12.256a2.993,2.993,0,1,1-1.35-2.5V1.522L5.983,3.531v11.04a2.991,2.991,0,1,1-5.983,0Z" transform="translate(304.44 45.44)" fill="#891a28" stroke="#891a28" stroke-width="1"/>
    </g>
  </g>
</svg>
