<svg width="20" height="19" viewBox="0 0 20 19" fill="#85002A" xmlns="http://www.w3.org/2000/svg">
<path d="M12.4553 1.12453C11.8951 3.107 12.2829 5.21906 13.4899 6.87888C14.6746 8.53796 16.5497 9.55099 18.6404 9.63694L19.2006 9.65839V9.40016C19.2006 5.24057 16.4203 1.70614 12.6063 0.585938L12.4553 1.12453Z" fill="#85002A"/>
<path d="M18.5972 10.9316C16.119 10.8235 13.8773 9.6388 12.4551 7.63411C10.9899 5.65164 10.5369 3.15097 11.2052 0.780879L11.3347 0.306503C10.9041 0.242153 10.4726 0.220703 10.0205 0.220703C5.38717 0.220703 1.55093 3.66918 0.925781 8.12993L1.42162 8.17283C3.7275 8.36671 5.8395 9.55222 7.21884 11.4266C8.5768 13.2803 9.07261 15.6506 8.55534 17.9349L8.44644 18.4522C8.96371 18.538 9.48098 18.5817 10.0197 18.5817C14.5457 18.5817 18.3382 15.2842 19.0707 10.953L18.5972 10.9316Z" fill="#85002A"/>
<path d="M7.30478 17.6525C7.73544 15.7344 7.32623 13.7519 6.18443 12.1786C5.02036 10.6268 3.25318 9.61362 1.31373 9.46282L0.839355 9.41992C0.839355 13.4929 3.51146 16.9414 7.1969 18.1271L7.30478 17.6525Z" fill="#85002A"/>
</svg>
