<svg xmlns="http://www.w3.org/2000/svg" width="31.09" height="31.09" viewBox="0 0 31.09 31.09">
  <g id="Grupo_664" data-name="Grupo 664" transform="translate(-373.455 -25.404)">
    <path id="Trazado_19" data-name="Trazado 19" d="M31.09,15.545A15.545,15.545,0,1,1,15.545,0,15.545,15.545,0,0,1,31.09,15.545" transform="translate(373.455 25.404)" fill="#ededdd"/>
    <path id="Unión_3" data-name="Unión 3" d="M357.5-6A3.5,3.5,0,0,1,354-9.5a3.5,3.5,0,0,1,3.5-3.5h9A3.5,3.5,0,0,1,370-9.5,3.5,3.5,0,0,1,366.5-6Zm.5-13a4,4,0,0,1,4-4,4,4,0,0,1,4,4,4,4,0,0,1-4,4A4,4,0,0,1,358-19Z" transform="translate(27 55)" fill="#891a28"/>
  </g>
</svg>
