<svg width="16" height="17" viewBox="0 0 16 17" fill="#85002A" xmlns="http://www.w3.org/2000/svg">
<path fill-rule="evenodd" clip-rule="evenodd" d="M2.34506 3.04751C3.33947 2.05317 4.57075 1.34657 5.91016 0.98872C6.25192 0.897332 6.56602 1.2114 6.47205 1.55571C6.1541 2.74826 6.15538 4.00909 6.47462 5.20159C7.12147 7.61559 9.02475 9.51869 11.4389 10.1655C12.6329 10.4854 13.895 10.486 15.0889 10.1674C15.43 10.0761 15.746 10.3895 15.6501 10.737C15.4731 11.3967 15.2092 12.0396 14.8578 12.6478C13.4135 15.1475 10.7721 16.6252 7.96901 16.6252C3.57628 16.6252 0.015625 13.0644 0.015625 8.67196C0.015625 6.6364 0.792476 4.60134 2.34562 3.04835L2.34506 3.04751ZM11.1564 6.03568H9.88523L11.4814 4.43961C11.7717 4.14872 11.5625 3.65381 11.1557 3.65381H8.77369C8.51881 3.65381 8.31285 3.85975 8.31285 4.11397C8.31285 4.36819 8.51881 4.57414 8.77369 4.57414H10.0442L8.45122 6.16764C8.15773 6.45853 8.36433 6.95667 8.77367 6.95667H11.1557C11.41 6.95667 11.6159 6.75072 11.6159 6.49651C11.6159 6.24229 11.41 6.03634 11.1557 6.03634L11.1564 6.03568ZM14.3893 7.75013H13.7862L14.7143 6.82145C15.0053 6.53056 14.7954 6.03565 14.3887 6.03565H12.6741C12.4198 6.03565 12.2139 6.2416 12.2139 6.49581C12.2139 6.75003 12.4198 6.95598 12.6741 6.95598H13.2772L12.3516 7.88144C12.0581 8.17234 12.2647 8.67048 12.6741 8.67048H14.3887C14.6429 8.67048 14.8489 8.46453 14.8489 8.21031C14.8489 7.95609 14.6429 7.75015 14.3887 7.75015L14.3893 7.75013ZM15.2074 3.65381H13.6376L15.5331 1.75846C15.8233 1.46821 15.6142 0.972656 15.2074 0.972656H12.5261C12.2719 0.972656 12.0659 1.1786 12.0659 1.43282C12.0659 1.68704 12.2719 1.89362 12.5261 1.89362H14.0959L12.2037 3.78568C11.9102 4.07657 12.1168 4.57471 12.5261 4.57471H15.2074C15.4617 4.57471 15.6676 4.36877 15.6676 4.11455C15.6676 3.86033 15.4617 3.65439 15.2074 3.65439L15.2074 3.65381Z" fill="#85002A"/>
</svg>
