<svg xmlns="http://www.w3.org/2000/svg" xmlns:xlink="http://www.w3.org/1999/xlink" width="30" height="30" viewBox="0 0 30 30">
  <defs>
    <clipPath id="clip-path">
      <circle id="Elipse_520" data-name="Elipse 520" cx="15" cy="15" r="15" transform="translate(29 820)" fill="#ef6bfd"/>
    </clipPath>
  </defs>
  <g id="Enmascarar_grupo_4" data-name="Enmascarar grupo 4" transform="translate(-29 -820)" clip-path="url(#clip-path)">
    <g id="reshot-icon-speed-dial-PTBGNUVYDC" transform="translate(18.704 808.763)">
      <path id="Trazado_2128" data-name="Trazado 2128" d="M29.119,35.213a2.606,2.606,0,0,1-1.658-.615,2.551,2.551,0,0,1-.894-1.733,2.612,2.612,0,0,1,.6-1.863c.82-.969,4.565-2.273,4.993-2.422a.348.348,0,0,1,.354.075.425.425,0,0,1,.13.354c-.075.447-.764,4.341-1.584,5.31A2.514,2.514,0,0,1,29.119,35.213ZM31.8,29.531a14.869,14.869,0,0,0-4.061,1.975,1.806,1.806,0,0,0-.429,1.323,1.771,1.771,0,0,0,.633,1.23,1.853,1.853,0,0,0,2.534-.2A14.724,14.724,0,0,0,31.8,29.531Z" transform="translate(-4.305 -4.912)" fill="#b0ff9f"/>
      <path id="Trazado_2128_-_Contorno" data-name="Trazado 2128 - Contorno" d="M29.119,35.713a3.089,3.089,0,0,1-1.98-.732,3.052,3.052,0,0,1-1.071-2.074,3.128,3.128,0,0,1,.708-2.222l0-.006c.821-.971,3.917-2.122,5.21-2.571l.027-.008a.947.947,0,0,1,.26-.037.82.82,0,0,1,.585.239.927.927,0,0,1,.272.778l0,.011c-.075.452-.763,4.449-1.7,5.55A3.016,3.016,0,0,1,29.119,35.713Zm2.006-5.389a10.942,10.942,0,0,0-3.006,1.508,1.3,1.3,0,0,0-.309.958A1.266,1.266,0,0,0,29.1,33.965h0a1.312,1.312,0,0,0,1-.435A11.212,11.212,0,0,0,31.125,30.324Z" transform="translate(-4.305 -4.912)" fill="#b0ff9f"/>
      <path id="Trazado_2129" data-name="Trazado 2129" d="M32.171,33.518H18.422a.362.362,0,0,1-.3-.149,9.419,9.419,0,0,1-1.77-5.422,8.943,8.943,0,1,1,17.885-.037,9.665,9.665,0,0,1-1.751,5.477A.384.384,0,0,1,32.171,33.518Zm-13.563-.745H31.985a8.96,8.96,0,0,0,1.509-4.881,8.2,8.2,0,1,0-16.395.037A8.886,8.886,0,0,0,18.608,32.773Z" fill="#b0ff9f"/>
      <path id="Trazado_2129_-_Contorno" data-name="Trazado 2129 - Contorno" d="M32.171,34.018H18.422a.859.859,0,0,1-.713-.369,9.891,9.891,0,0,1-1.855-5.7,9.443,9.443,0,1,1,18.885-.037A10.18,10.18,0,0,1,32.9,33.674l-.02.026A.881.881,0,0,1,32.171,34.018ZM18.884,32.273H31.709a8.422,8.422,0,0,0,1.285-4.381,7.7,7.7,0,1,0-15.395.037A8.354,8.354,0,0,0,18.884,32.273Z" fill="#b0ff9f"/>
    </g>
  </g>
</svg>
